<?xml version="1.0" standalone="no"?>
<!DOCTYPE svg PUBLIC "-//W3C//DTD SVG 20010904//EN"
 "http://www.w3.org/TR/2001/REC-SVG-20010904/DTD/svg10.dtd">
<svg version="1.0" xmlns="http://www.w3.org/2000/svg"
 width="752.000000pt" height="752.000000pt" viewBox="0 0 752.000000 752.000000"
 preserveAspectRatio="xMidYMid meet">
<metadata>
Created by potrace 1.11, written by Peter Selinger 2001-2013
</metadata>
<g transform="translate(0.000000,752.000000) scale(0.100000,-0.100000)"
fill="#000000" stroke="none">
<path d="M2240 6699 c-116 -31 -204 -83 -290 -169 -116 -116 -176 -245 -185
-395 -2 -33 -5 -62 -6 -65 -1 -3 0 -9 1 -15 1 -5 4 -26 6 -45 1 -19 5 -46 8
-60 3 -14 8 -36 11 -48 2 -13 23 -62 45 -109 83 -170 250 -299 445 -341 53
-11 280 -5 280 8 0 1 11 3 25 6 14 2 63 22 109 45 64 32 101 59 160 118 42 42
85 94 96 116 11 22 23 42 26 45 7 6 48 118 55 152 5 23 16 125 15 143 0 18
-11 110 -14 125 -28 120 -79 216 -163 308 -36 40 -72 72 -80 72 -8 0 -14 4
-14 9 0 12 -156 91 -179 91 -10 0 -21 3 -25 7 -9 9 -40 13 -156 18 -73 3 -112
-1 -170 -16z"/>
<path d="M4962 6700 c-114 -30 -206 -84 -292 -170 -41 -42 -84 -94 -95 -115
-11 -22 -23 -42 -27 -46 -8 -5 -45 -113 -56 -159 -8 -34 -7 -218 0 -255 27
-124 81 -226 167 -313 36 -37 77 -75 91 -86 23 -17 142 -77 165 -83 45 -12
151 -31 157 -27 3 2 9 0 13 -6 4 -6 9 -8 13 -6 4 2 36 7 72 10 36 3 76 8 89
11 172 34 352 175 430 337 45 93 68 180 67 251 -1 26 3 47 7 47 5 0 5 5 2 10
-4 6 -8 28 -10 48 -2 20 -6 48 -9 62 -3 14 -8 36 -11 48 -2 13 -23 63 -46 110
-56 116 -160 221 -278 280 -45 23 -90 42 -100 42 -10 0 -21 3 -25 7 -9 9 -40
13 -156 18 -71 3 -113 -1 -168 -15z"/>
<path d="M5150 4486 c-3 -2 -37 -7 -75 -10 -113 -8 -157 -21 -259 -74 -85 -45
-202 -156 -247 -237 -19 -33 -32 -61 -31 -63 2 -2 -3 -13 -11 -25 -23 -36 -53
-189 -49 -252 2 -23 11 -92 16 -115 3 -14 8 -35 10 -46 6 -30 70 -164 92 -194
53 -71 159 -161 234 -199 44 -22 80 -38 80 -35 0 2 10 -1 22 -7 40 -22 226
-32 313 -17 49 8 124 34 142 49 7 6 13 8 13 3 0 -5 4 -4 8 1 4 6 24 19 45 29
73 38 226 202 227 244 0 6 4 12 8 12 9 0 50 114 60 165 8 39 8 212 0 250 -26
119 -78 219 -164 314 -36 39 -72 71 -80 71 -8 0 -14 4 -14 9 0 18 -165 91
-239 105 -41 8 -78 13 -82 10 -4 -2 -9 1 -11 7 -2 5 -6 8 -8 5z"/>
<path d="M2255 4464 c-33 -8 -73 -22 -90 -31 -16 -9 -32 -16 -35 -16 -18 5
-126 -72 -185 -131 -110 -111 -171 -243 -180 -391 -2 -33 -5 -62 -6 -65 -1 -3
0 -9 1 -15 1 -5 4 -26 6 -45 5 -55 15 -103 25 -122 5 -10 8 -18 5 -18 -7 0 59
-131 81 -160 41 -55 143 -148 194 -177 64 -37 154 -74 189 -78 14 -2 54 -6 90
-10 36 -4 68 -9 72 -11 4 -2 9 0 13 6 4 6 10 8 15 5 17 -10 151 24 218 55 56
27 174 107 192 131 28 38 57 74 68 85 6 7 12 15 12 18 0 4 11 24 25 46 14 22
23 40 20 40 -3 0 0 10 7 23 7 12 13 24 13 27 1 3 7 25 15 50 19 65 21 228 4
303 -51 217 -213 392 -434 468 -80 27 -244 33 -335 13z"/>
<path d="M10 1442 c-6 -2 -10 -119 -10 -323 l0 -319 3760 0 3760 0 0 318 0
318 -22 2 c-54 6 -278 6 -278 1 0 -4 -16 -3 -35 1 -19 4 -37 4 -40 -1 -3 -4
-16 -4 -29 1 -13 5 -26 7 -29 4 -8 -9 -61 -11 -83 -3 -11 4 -27 4 -34 -1 -7
-5 -23 -5 -34 0 -12 4 -30 4 -41 0 -11 -4 -31 -4 -45 0 -14 4 -35 4 -47 -1
-12 -4 -25 -4 -28 1 -3 5 -18 5 -35 0 -17 -5 -30 -6 -30 -2 0 6 -145 7 -160 1
-3 -1 -9 0 -15 1 -18 4 -124 2 -132 -3 -4 -2 -17 -1 -28 3 -11 4 -32 4 -47 -1
-14 -4 -29 -5 -32 -1 -4 3 -30 5 -59 3 -64 -2 -62 -2 -115 1 -23 2 -42 0 -42
-4 0 -4 -12 -3 -27 1 -16 5 -37 5 -48 1 -11 -4 -24 -5 -30 -2 -12 8 -102 5
-115 -3 -6 -3 -10 -3 -10 2 0 8 -72 9 -87 0 -4 -2 -17 -1 -28 3 -11 4 -32 4
-47 -1 -14 -4 -29 -5 -32 -1 -4 3 -30 5 -59 3 -64 -2 -62 -2 -115 1 -23 2 -42
0 -42 -4 0 -4 -12 -3 -27 1 -16 5 -37 5 -48 1 -11 -4 -24 -5 -30 -2 -12 8
-102 5 -115 -3 -6 -3 -10 -3 -10 2 0 8 -72 9 -87 0 -4 -2 -17 -1 -28 3 -11 4
-32 4 -47 -1 -14 -4 -29 -5 -32 -1 -4 3 -30 5 -59 3 -64 -2 -62 -2 -115 1 -23
2 -42 0 -42 -4 0 -4 -12 -3 -27 1 -16 5 -37 5 -48 1 -11 -4 -24 -5 -30 -2 -12
8 -102 5 -115 -3 -6 -3 -10 -3 -10 2 0 8 -72 9 -87 0 -4 -2 -17 -1 -28 3 -11
4 -32 4 -47 -1 -14 -4 -29 -5 -32 -1 -4 3 -30 5 -59 3 -64 -2 -62 -2 -115 1
-23 2 -42 0 -42 -4 0 -4 -12 -3 -27 1 -16 5 -37 5 -48 1 -11 -4 -24 -5 -30 -2
-12 8 -102 5 -115 -3 -6 -3 -10 -3 -10 2 0 8 -89 8 -97 -1 -3 -3 -15 -1 -27 4
-13 4 -29 5 -36 0 -7 -5 -23 -5 -34 0 -12 4 -30 4 -41 0 -11 -4 -31 -4 -45 0
-14 4 -35 4 -47 -1 -12 -4 -25 -4 -28 1 -3 5 -18 5 -35 0 -17 -5 -30 -6 -30
-2 0 8 -148 7 -156 -1 -3 -3 -12 -3 -20 0 -21 8 -274 9 -274 2 0 -4 -16 -3
-35 1 -19 4 -37 4 -40 -1 -3 -4 -16 -5 -28 0 -12 5 -31 5 -42 1 -11 -4 -33 -5
-50 -3 -16 3 -37 4 -45 4 -8 -1 -26 -1 -40 0 -14 0 -31 0 -37 0 -24 -2 -38 -2
-111 1 -39 2 -72 0 -72 -4 0 -4 -13 -3 -29 2 -15 4 -34 4 -41 0 -7 -5 -20 -6
-27 -3 -21 8 -363 9 -363 2 0 -4 -16 -3 -35 1 -19 4 -37 4 -40 -1 -3 -4 -16
-4 -29 1 -13 5 -26 7 -29 4 -8 -9 -61 -11 -83 -3 -11 4 -27 4 -34 -1 -7 -5
-23 -5 -34 0 -12 4 -30 4 -41 0 -11 -4 -31 -4 -45 0 -14 4 -35 4 -47 -1 -12
-4 -25 -4 -28 1 -3 5 -18 5 -35 0 -17 -5 -30 -6 -30 -2 0 6 -145 7 -160 1 -3
-1 -9 0 -15 1 -18 4 -124 2 -132 -3 -4 -2 -17 -1 -28 3 -11 4 -32 4 -47 -1
-14 -4 -29 -5 -32 -1 -4 3 -30 5 -59 3 -64 -2 -62 -2 -115 1 -23 2 -42 0 -42
-4 0 -4 -12 -3 -27 1 -16 5 -37 5 -48 1 -11 -4 -24 -5 -30 -2 -12 8 -102 5
-115 -3 -6 -3 -10 -3 -10 2 0 8 -72 9 -87 0 -4 -2 -17 -1 -28 3 -11 4 -32 4
-47 -1 -14 -4 -29 -5 -32 -1 -4 3 -30 5 -59 3 -64 -2 -62 -2 -115 1 -23 2 -42
0 -42 -4 0 -4 -12 -3 -27 1 -16 5 -37 5 -48 1 -11 -4 -24 -5 -30 -2 -12 8
-102 5 -115 -3 -6 -3 -10 -3 -10 2 0 8 -60 11 -80 5z"/>
</g>
</svg>
